<?xml version="1.0" encoding="utf-8"?>
<!-- Generator: Adobe Illustrator 22.0.1, SVG Export Plug-In . SVG Version: 6.00 Build 0)  -->
<svg version="1.1" id="Capa_1" xmlns="http://www.w3.org/2000/svg" xmlns:xlink="http://www.w3.org/1999/xlink" x="0px" y="0px"
	 viewBox="0 0 795 176.3" style="enable-background:new 0 0 795 176.3;" xml:space="preserve">
<style type="text/css">
	.st0{fill:#FFFFFF;}
</style>
<g>
	<path class="st0" d="M35.1,128.4c-10.2-5.8-18.2-13.9-24-24.2C5.3,94,2.4,82.4,2.4,69.7s2.9-24.3,8.7-34.5s13.8-18.2,24-24.1
		c10.2-5.8,21.7-8.8,34.5-8.8c12.7,0,24.2,2.9,34.4,8.8c10.3,5.8,18.3,13.9,24.1,24.1s8.7,21.7,8.7,34.5s-2.9,24.3-8.7,34.6
		s-13.8,18.3-24.1,24.2c-10.3,5.8-21.7,8.8-34.4,8.8C56.8,137.1,45.3,134.2,35.1,128.4z M97.3,117.4c8.2-4.8,14.7-11.4,19.4-19.8
		c4.7-8.4,7.1-17.7,7.1-28c0-10.2-2.4-19.5-7.1-27.9s-11.2-15-19.4-19.8s-17.5-7.2-27.7-7.2c-10.3,0-19.6,2.4-27.9,7.2
		C33.5,26.8,27,33.4,22.3,41.8s-7.1,17.6-7.1,27.9s2.4,19.7,7.1,28c4.7,8.4,11.2,15,19.4,19.8s17.5,7.2,27.9,7.2
		C79.8,124.7,89,122.3,97.3,117.4z"/>
	<path class="st0" d="M232.8,48.7c7.1,4.1,12.7,9.7,16.8,16.9s6.1,15.1,6.1,23.9s-2,16.7-6,23.8c-4,7.1-9.4,12.7-16.3,16.8
		c-6.9,4.1-14.6,6.1-23.1,6.1c-7.3,0-14-1.5-20-4.6c-6.1-3.1-11.1-7.3-15-12.7v49.3c0,1.9-0.6,3.5-1.9,4.7c-1.2,1.2-2.8,1.9-4.7,1.9
		s-3.5-0.6-4.6-1.9c-1.2-1.2-1.8-2.8-1.8-4.7v-37.7c-0.1-0.3-0.2-0.8-0.2-1.5V89.5c0-8.8,2-16.7,6.1-23.9s9.7-12.8,16.8-16.9
		s15.1-6.1,23.8-6.1S225.6,44.6,232.8,48.7z M226.4,120c5.2-3,9.3-7.2,12.3-12.5s4.5-11.3,4.5-17.9s-1.5-12.6-4.5-17.9
		s-7.1-9.5-12.3-12.6s-11-4.6-17.4-4.6s-12.2,1.5-17.3,4.6c-5.2,3.1-9.2,7.3-12.2,12.6c-3,5.3-4.5,11.3-4.5,17.9
		c0,1.9,0.1,3.3,0.2,4.2c0.1,0.2,0.2,0.5,0.2,0.8c1.1,8.8,4.8,15.9,11,21.5s13.8,8.4,22.6,8.4C215.3,124.5,221.1,123,226.4,120z"/>
	<path class="st0" d="M342.4,48.4c6.4,3.9,11.4,9.2,14.9,16.1c3.5,6.8,5.3,14.6,5.3,23.4c0,1.8-0.6,3.2-1.7,4.3
		c-1.1,1.1-2.6,1.6-4.4,1.6h-68c0.9,9.2,4.5,16.7,10.8,22.4c6.3,5.7,14.1,8.6,23.6,8.6c4,0,8.1-0.7,12.2-2.1s7.4-3.2,9.8-5.3
		c1.5-1.1,3-1.7,4.5-1.7c1.2,0,2.5,0.4,3.7,1.3c1.5,1.3,2.2,2.9,2.2,4.5c0,1.5-0.6,2.8-1.9,3.9c-3.7,3.1-8.4,5.8-14.1,7.8
		c-5.7,2.1-11.2,3.1-16.5,3.1c-9,0-17-2-24.1-6s-12.6-9.5-16.6-16.7c-4-7.1-6-15.2-6-24.2c0-9.1,1.9-17.2,5.6-24.3
		c3.8-7.1,9-12.7,15.7-16.7s14.3-6,22.8-6C328.7,42.6,336,44.5,342.4,48.4z M299.1,62.1c-5.6,5.3-9,12.2-10.3,20.9h61.6
		c-0.9-8.6-4-15.6-9.4-20.9s-12.3-7.9-20.7-7.9C311.8,54.2,304.8,56.8,299.1,62.1z"/>
	<path class="st0" d="M449.5,47.4c6.3,3.4,11.3,8.3,14.9,14.7c3.6,6.5,5.4,14.2,5.4,23.1V129c0,1.8-0.6,3.3-1.9,4.5
		c-1.2,1.2-2.8,1.9-4.5,1.9c-1.9,0-3.5-0.6-4.7-1.9c-1.2-1.2-1.9-2.7-1.9-4.5V85.3c0-10-2.8-17.6-8.3-22.8
		c-5.6-5.2-12.8-7.8-21.8-7.8c-5.5,0-10.5,1.1-14.9,3.2c-4.4,2.1-7.9,5.1-10.5,8.8c-2.6,3.8-3.9,7.9-3.9,12.5V129
		c0,1.9-0.6,3.5-1.8,4.6c-1.2,1.2-2.7,1.8-4.6,1.8s-3.5-0.6-4.7-1.8s-1.9-2.7-1.9-4.6V50c0-1.9,0.6-3.5,1.9-4.7
		c1.2-1.2,2.8-1.9,4.7-1.9c1.9,0,3.5,0.6,4.6,1.9c1.2,1.2,1.8,2.8,1.8,4.7v5.7c3.7-4.1,8.2-7.4,13.5-9.8c5.3-2.4,11-3.5,17.2-3.5
		C436,42.4,443.2,44.1,449.5,47.4z"/>
	<path class="st0" d="M569.7,48.7c6.9,4.1,12.3,9.7,16.3,16.8s6,15.1,6,23.8s-2,16.7-6.1,23.9c-4.1,7.2-9.7,12.8-16.8,16.9
		c-7.1,4.1-15.1,6.1-23.8,6.1s-16.7-2-23.8-6.1c-7.1-4.1-12.7-9.7-16.8-16.9c-4.1-7.2-6.1-15.1-6.1-23.9V49.8c0-0.7,0.1-1.2,0.2-1.5
		V10.6c0-1.9,0.6-3.5,1.8-4.7c1.2-1.2,2.7-1.9,4.6-1.9s3.5,0.6,4.7,1.9c1.2,1.2,1.9,2.8,1.9,4.7v49.3c3.9-5.4,8.9-9.6,15-12.7
		c6.1-3.1,12.7-4.6,20-4.6C555.1,42.6,562.8,44.6,569.7,48.7z M562.6,119.9c5.2-3.1,9.3-7.3,12.3-12.6c3-5.3,4.5-11.3,4.5-17.9
		s-1.5-12.6-4.5-17.9S567.8,62,562.6,59s-11-4.5-17.4-4.5c-8.9,0-16.4,2.8-22.6,8.4c-6.2,5.6-9.9,12.8-11,21.5
		c0,0.3-0.1,0.6-0.2,0.8c-0.1,0.9-0.2,2.3-0.2,4.2c0,6.6,1.5,12.6,4.5,17.9s7,9.5,12.2,12.6s10.9,4.6,17.3,4.6
		S557.4,123,562.6,119.9z"/>
	<path class="st0" d="M635.3,130.2c-7.1-4-12.7-9.6-16.7-16.7s-6.1-15.1-6.1-24s2-16.9,6.1-24.1c4-7.2,9.6-12.8,16.7-16.8
		c7.1-4,15.1-6.1,24-6.1s16.8,2,23.9,6.1c7.1,4,12.6,9.7,16.7,16.8c4.1,7.2,6.1,15.2,6.1,24.1s-2,16.9-6.1,24
		c-4,7.1-9.6,12.7-16.7,16.7c-7.1,4-15.1,6.1-24,6.1C650.4,136.3,642.4,134.3,635.3,130.2z M676.8,120c5.2-3,9.2-7.2,12.1-12.5
		c2.9-5.3,4.4-11.3,4.4-17.9c0-6.7-1.5-12.8-4.4-18.1c-2.9-5.3-7-9.5-12.1-12.5c-5.2-3-11-4.5-17.5-4.5c-6.4,0-12.2,1.5-17.4,4.5
		s-9.3,7.2-12.3,12.5s-4.5,11.4-4.5,18.1c0,6.6,1.5,12.6,4.5,17.9s7.1,9.5,12.3,12.5s11,4.5,17.4,4.5
		C665.8,124.5,671.6,123,676.8,120z"/>
	<path class="st0" d="M792.9,129.9c0,1.6-0.6,2.9-1.8,4s-2.5,1.6-4,1.6c-1.3,0-2.5-0.2-3.4-0.7c-0.9-0.4-1.7-1.2-2.5-2.4l-27.6-35.2
		L725,133.4c-1,1.3-2.5,2-4.5,2c-1.8,0-3.2-0.6-4.3-1.7c-1.1-1.1-1.6-2.5-1.6-4c0-1.8,0.6-3.3,1.7-4.5l29.1-36.4l-27.6-35
		c-1.1-1.2-1.7-2.7-1.7-4.5c0-1.7,0.5-3.1,1.5-4.2c1-1.1,2.5-1.7,4.4-1.7s3.5,0.7,4.9,2L754,80.2l26.8-33.8c1.6-2,3.4-3,5.6-3
		c1.8,0,3.2,0.6,4.3,1.7c1.1,1.1,1.6,2.5,1.6,4c0,1.7-0.6,3.3-1.9,4.9l-27.9,34.7l28.6,36.7C792.3,126.9,792.9,128.4,792.9,129.9z"
		/>
</g>
</svg>